# Rhino

mtllib Arrow.mtl
usemtl diffuse_Black
v 0 0 0
v 0 1 -0.5
v 0 2 -1
v 0 0 0
v -0.19713778793811798 1 -0.4594961404800415
v -0.39427557587623596 2 -0.91899228096008301
v 0 0 0
v -0.35702735185623169 1 -0.35004496574401855
v -0.71405470371246338 2 -0.70008993148803711
v 0 0 0
v -0.46287885308265686 1 -0.18905863165855408
v -0.92575770616531372 2 -0.37811726331710815
v 0 0 0
v -0.5 1 0
v -1 2 0
v 0 0 0
v -0.4594961404800415 1 0.19713778793811798
v -0.91899228096008301 2 0.39427557587623596
v 0 0 0
v -0.35004496574401855 1 0.35702735185623169
v -0.70008993148803711 2 0.71405470371246338
v 0 0 0
v -0.18905863165855408 1 0.46287885308265686
v -0.37811726331710815 2 0.92575770616531372
v 0 0 0
v 0 1 0.5
v 0 2 1
v 0 0 0
v 0.19713778793811798 1 0.4594961404800415
v 0.39427557587623596 2 0.91899228096008301
v 0 0 0
v 0.35702735185623169 1 0.35004496574401855
v 0.71405470371246338 2 0.70008993148803711
v 0 0 0
v 0.46287885308265686 1 0.18905863165855408
v 0.92575770616531372 2 0.37811726331710815
v 0 0 0
v 0.5 1 0
v 1 2 0
v 0 0 0
v 0.4594961404800415 1 -0.19713778793811798
v 0.91899228096008301 2 -0.39427557587623596
v 0 0 0
v 0.35004496574401855 1 -0.35702735185623169
v 0.70008993148803711 2 -0.71405470371246338
v 0 0 0
v 0.18905863165855408 1 -0.46287885308265686
v 0.37811726331710815 2 -0.92575770616531372
v 0 0 0
v 0 1 -0.5
v 0 2 -1
v 0 2 -1
v -0.39427557587623596 2 -0.91899228096008301
v -0.71405470371246338 2 -0.70008993148803711
v -0.92575770616531372 2 -0.37811726331710815
v -1 2 0
v -0.91899228096008301 2 0.39427557587623596
v -0.70008993148803711 2 0.71405470371246338
v -0.37811726331710815 2 0.92575770616531372
v 0 2 1
v 0.39427557587623596 2 0.91899228096008301
v 0.71405470371246338 2 0.70008993148803711
v 0.92575770616531372 2 0.37811726331710815
v 1 2 0
v 0.91899228096008301 2 -0.39427557587623596
v 0.70008993148803711 2 -0.71405470371246338
v 0.37811726331710815 2 -0.92575770616531372
vt 0.67271023988723755 0
vt 0.49550625681877136 0
vt 0.31830227375030518 0
vt 0.67271023988723755 0.06440773606300354
vt 0.49550625681877136 0.06440773606300354
vt 0.31830227375030518 0.06440773606300354
vt 0.67271023988723755 0.12638621032238007
vt 0.49550625681877136 0.12638621032238007
vt 0.31830227375030518 0.12638621032238007
vt 0.67271023988723755 0.18801000714302063
vt 0.49550625681877136 0.18801000714302063
vt 0.31830227375030518 0.18801000714302063
vt 0.67271023988723755 0.2496337890625
vt 0.49550625681877136 0.2496337890625
vt 0.31830227375030518 0.2496337890625
vt 0.67271023988723755 0.31404155492782593
vt 0.49550625681877136 0.31404155492782593
vt 0.31830227375030518 0.31404155492782593
vt 0.67271023988723755 0.37602001428604126
vt 0.49550625681877136 0.37602001428604126
vt 0.31830227375030518 0.37602001428604126
vt 0.67271023988723755 0.43764376640319824
vt 0.49550625681877136 0.43764376640319824
vt 0.31830227375030518 0.43764376640319824
vt 0.67271023988723755 0.499267578125
vt 0.49550625681877136 0.499267578125
vt 0.31830227375030518 0.499267578125
vt 0.67271023988723755 0.56367534399032593
vt 0.49550625681877136 0.56367534399032593
vt 0.31830227375030518 0.56367534399032593
vt 0.67271023988723755 0.62565374374389648
vt 0.49550625681877136 0.62565374374389648
vt 0.31830227375030518 0.62565374374389648
vt 0.67271023988723755 0.68727761507034302
vt 0.49550625681877136 0.68727761507034302
vt 0.31830227375030518 0.68727761507034302
vt 0.67271023988723755 0.7489013671875
vt 0.49550625681877136 0.7489013671875
vt 0.31830227375030518 0.7489013671875
vt 0.67271023988723755 0.81330913305282593
vt 0.49550625681877136 0.81330913305282593
vt 0.31830227375030518 0.81330913305282593
vt 0.67271023988723755 0.87528753280639648
vt 0.49550625681877136 0.87528753280639648
vt 0.31830227375030518 0.87528753280639648
vt 0.67271023988723755 0.93691140413284302
vt 0.49550625681877136 0.93691140413284302
vt 0.31830227375030518 0.93691140413284302
vt 0.67271023988723755 0.99853515625
vt 0.49550625681877136 0.99853515625
vt 0.31830227375030518 0.99853515625
vt 0.31683743000030518 0.15915113687515259
vt 0.30400431156158447 0.22190055251121521
vt 0.26932606101036072 0.27279376983642578
vt 0.21831956505775452 0.30648654699325562
vt 0.15841871500015259 0.31830227375030518
vt 0.09595809131860733 0.30540981888771057
vt 0.045299094170331955 0.2705712616443634
vt 0.011761368252336979 0.21932892501354218
vt 0 0.15915113687515259
vt 0.012833142653107643 0.09640173614025116
vt 0.047511368989944458 0.045508526265621185
vt 0.098517864942550659 0.011815744452178478
vt 0.15841871500015259 0
vt 0.22087934613227844 0.012892474420368671
vt 0.27153834700584412 0.047731030732393265
vt 0.30507609248161316 0.098973348736763
vn 0 -0.44721359014511108 -0.89442718029022217
vn 0 -0.44721359014511108 -0.89442718029022217
vn 0 -0.44721359014511108 -0.89442718029022217
vn -0.35265079140663147 -0.44721359014511108 -0.82197165489196777
vn -0.35265079140663147 -0.44721359014511108 -0.82197165489196777
vn -0.35265079140663147 -0.44721359014511108 -0.82197165489196777
vn -0.63866990804672241 -0.44721359014511108 -0.62617945671081543
vn -0.63866990804672241 -0.44721359014511108 -0.62617945671081543
vn -0.63866990804672241 -0.44721359014511108 -0.62617945671081543
vn -0.82802289724349976 -0.44721359014511108 -0.33819836378097534
vn -0.82802289724349976 -0.44721359014511108 -0.33819836378097534
vn -0.82802289724349976 -0.44721359014511108 -0.33819836378097534
vn -0.89442718029022217 -0.44721359014511108 0
vn -0.89442718029022217 -0.44721359014511108 0
vn -0.89442718029022217 -0.44721359014511108 0
vn -0.82197165489196777 -0.44721359014511108 0.35265079140663147
vn -0.82197165489196777 -0.44721359014511108 0.35265079140663147
vn -0.82197165489196777 -0.44721359014511108 0.35265079140663147
vn -0.62617945671081543 -0.44721359014511108 0.63866990804672241
vn -0.62617945671081543 -0.44721359014511108 0.63866990804672241
vn -0.62617945671081543 -0.44721359014511108 0.63866990804672241
vn -0.33819836378097534 -0.44721359014511108 0.82802289724349976
vn -0.33819836378097534 -0.44721359014511108 0.82802289724349976
vn -0.33819836378097534 -0.44721359014511108 0.82802289724349976
vn 0 -0.44721359014511108 0.89442718029022217
vn 0 -0.44721359014511108 0.89442718029022217
vn 0 -0.44721359014511108 0.89442718029022217
vn 0.35265079140663147 -0.44721359014511108 0.82197165489196777
vn 0.35265079140663147 -0.44721359014511108 0.82197165489196777
vn 0.35265079140663147 -0.44721359014511108 0.82197165489196777
vn 0.63866990804672241 -0.44721359014511108 0.62617945671081543
vn 0.63866990804672241 -0.44721359014511108 0.62617945671081543
vn 0.63866990804672241 -0.44721359014511108 0.62617945671081543
vn 0.82802289724349976 -0.44721359014511108 0.33819836378097534
vn 0.82802289724349976 -0.44721359014511108 0.33819836378097534
vn 0.82802289724349976 -0.44721359014511108 0.33819836378097534
vn 0.89442718029022217 -0.44721359014511108 0
vn 0.89442718029022217 -0.44721359014511108 0
vn 0.89442718029022217 -0.44721359014511108 0
vn 0.82197165489196777 -0.44721359014511108 -0.35265079140663147
vn 0.82197165489196777 -0.44721359014511108 -0.35265079140663147
vn 0.82197165489196777 -0.44721359014511108 -0.35265079140663147
vn 0.62617945671081543 -0.44721359014511108 -0.63866990804672241
vn 0.62617945671081543 -0.44721359014511108 -0.63866990804672241
vn 0.62617945671081543 -0.44721359014511108 -0.63866990804672241
vn 0.33819836378097534 -0.44721359014511108 -0.82802289724349976
vn 0.33819836378097534 -0.44721359014511108 -0.82802289724349976
vn 0.33819836378097534 -0.44721359014511108 -0.82802289724349976
vn 0 -0.44721359014511108 -0.89442718029022217
vn 0 -0.44721359014511108 -0.89442718029022217
vn 0 -0.44721359014511108 -0.89442718029022217
vn 0 1 0
vn 0 1 0
vn 0 1 0
vn 0 1 0
vn 0 1 0
vn 0 1 0
vn 0 1 0
vn 0 1 0
vn 0 1 0
vn 0 1 0
vn 0 1 0
vn 0 1 0
vn 0 1 0
vn 0 1 0
vn 0 1 0
vn 0 1 0
f 5/5/5 2/2/2 1/1/1
f 8/8/8 5/5/5 4/4/4
f 11/11/11 8/8/8 7/7/7
f 14/14/14 11/11/11 10/10/10
f 17/17/17 14/14/14 13/13/13
f 20/20/20 17/17/17 16/16/16
f 23/23/23 20/20/20 19/19/19
f 26/26/26 23/23/23 22/22/22
f 29/29/29 26/26/26 25/25/25
f 32/32/32 29/29/29 28/28/28
f 35/35/35 32/32/32 31/31/31
f 38/38/38 35/35/35 34/34/34
f 41/41/41 38/38/38 37/37/37
f 44/44/44 41/41/41 40/40/40
f 47/47/47 44/44/44 43/43/43
f 50/50/50 47/47/47 46/46/46
f 5/5/5 6/6/6 3/3/3 2/2/2
f 11/11/11 12/12/12 9/9/9 8/8/8
f 8/8/8 9/9/9 6/6/6 5/5/5
f 17/17/17 18/18/18 15/15/15 14/14/14
f 23/23/23 24/24/24 21/21/21 20/20/20
f 20/20/20 21/21/21 18/18/18 17/17/17
f 14/14/14 15/15/15 12/12/12 11/11/11
f 26/26/26 27/27/27 24/24/24 23/23/23
f 32/32/32 33/33/33 30/30/30 29/29/29
f 38/38/38 39/39/39 36/36/36 35/35/35
f 35/35/35 36/36/36 33/33/33 32/32/32
f 44/44/44 45/45/45 42/42/42 41/41/41
f 50/50/50 51/51/51 48/48/48 47/47/47
f 47/47/47 48/48/48 45/45/45 44/44/44
f 41/41/41 42/42/42 39/39/39 38/38/38
f 29/29/29 30/30/30 27/27/27 26/26/26
f 62/62/62 60/60/60 61/61/61
f 62/62/62 63/63/63 64/64/64
f 59/59/59 62/62/62 55/55/55
f 59/59/59 60/60/60 62/62/62
f 55/55/55 58/58/58 59/59/59
f 57/57/57 58/58/58 55/55/55
f 64/64/64 67/67/67 62/62/62
f 64/64/64 66/66/66 67/67/67
f 55/55/55 62/62/62 67/67/67
f 52/52/52 55/55/55 67/67/67
f 56/56/56 57/57/57 55/55/55
f 52/52/52 54/54/54 55/55/55
f 52/52/52 53/53/53 54/54/54
f 66/66/66 64/64/64 65/65/65
usemtl diffuse_Black
v 0.25 2 0
v 0.25 12 0
v 0.21031337976455688 2 -0.13516020774841309
v 0.21031337976455688 12 -0.13516020774841309
v 0.10385375469923019 2 -0.22740799188613892
v 0.10385375469923019 12 -0.22740799188613892
v -0.035578709095716476 2 -0.24745535850524902
v -0.035578709095716476 12 -0.24745535850524902
v -0.1637151837348938 2 -0.18893739581108093
v -0.1637151837348938 12 -0.18893739581108093
v -0.2398732453584671 2 -0.070433139801025391
v -0.2398732453584671 12 -0.070433139801025391
v -0.2398732453584671 2 0.070433139801025391
v -0.2398732453584671 12 0.070433139801025391
v -0.1637151837348938 2 0.18893739581108093
v -0.1637151837348938 12 0.18893739581108093
v -0.035578709095716476 2 0.24745535850524902
v -0.035578709095716476 12 0.24745535850524902
v 0.10385375469923019 2 0.22740799188613892
v 0.10385375469923019 12 0.22740799188613892
v 0.21031337976455688 2 0.13516020774841309
v 0.21031337976455688 12 0.13516020774841309
v 0.25 2 0
v 0.25 12 0
v 0.25 2 0
v 0.21031337976455688 2 -0.13516020774841309
v 0.10385375469923019 2 -0.22740799188613892
v -0.035578709095716476 2 -0.24745535850524902
v -0.1637151837348938 2 -0.18893739581108093
v -0.2398732453584671 2 -0.070433139801025391
v -0.2398732453584671 2 0.070433139801025391
v -0.1637151837348938 2 0.18893739581108093
v -0.035578709095716476 2 0.24745535850524902
v 0.10385375469923019 2 0.22740799188613892
v 0.21031337976455688 2 0.13516020774841309
v 0.25 12 0
v 0.21031337976455688 12 -0.13516020774841309
v 0.10385375469923019 12 -0.22740799188613892
v -0.035578709095716476 12 -0.24745535850524902
v -0.1637151837348938 12 -0.18893739581108093
v -0.2398732453584671 12 -0.070433139801025391
v -0.2398732453584671 12 0.070433139801025391
v -0.1637151837348938 12 0.18893739581108093
v -0.035578709095716476 12 0.24745535850524902
v 0.10385375469923019 12 0.22740799188613892
v 0.21031337976455688 12 0.13516020774841309
vt 0 0
vt 0 1
vt 0.073301643133163452 0
vt 0.073301643133163452 1
vt 0.1466032862663269 0
vt 0.1466032862663269 1
vt 0.21990494430065155 0
vt 0.21990494430065155 1
vt 0.29320657253265381 0
vt 0.29320657253265381 1
vt 0.36650821566581726 0
vt 0.36650821566581726 1
vt 0.4398098886013031 0
vt 0.4398098886013031 1
vt 0.51311153173446655 0
vt 0.51311153173446655 1
vt 0.58641314506530762 0
vt 0.58641314506530762 1
vt 0.65971481800079346 0
vt 0.65971481800079346 1
vt 0.73301643133163452 0
vt 0.73301643133163452 1
vt 0.80631810426712036 0
vt 0.80631810426712036 1
vt 1 0.024745536968111992
vt 0.98430913686752319 0.011229516007006168
vt 0.94221818447113037 0.002004736103117466
vt 0.88709080219268799 0
vt 0.83642947673797607 0.0058517968282103539
vt 0.80631887912750244 0.017702221870422363
vt 0.80631887912750244 0.031788848340511322
vt 0.83642947673797607 0.043639276176691055
vt 0.88709080219268799 0.049491073936223984
vt 0.94221818447113037 0.047486335039138794
vt 0.98430913686752319 0.038261555135250092
vt 1 0.024745536968111992
vt 0.98430913686752319 0.038261555135250092
vt 0.94221818447113037 0.047486335039138794
vt 0.88709080219268799 0.049491073936223984
vt 0.83642947673797607 0.043639276176691055
vt 0.80631887912750244 0.031788848340511322
vt 0.80631887912750244 0.017702221870422363
vt 0.83642947673797607 0.0058517968282103539
vt 0.88709080219268799 0
vt 0.94221818447113037 0.002004736103117466
vt 0.98430913686752319 0.011229516007006168
vn 1 0 0
vn 1 0 0
vn 0.84125351905822754 0 -0.54064083099365234
vn 0.84125351905822754 0 -0.54064083099365234
vn 0.41541501879692078 0 -0.90963196754455566
vn 0.41541501879692078 0 -0.90963196754455566
vn -0.14231483638286591 0 -0.98982143402099609
vn -0.14231483638286591 0 -0.98982143402099609
vn -0.6548607349395752 0 -0.75574958324432373
vn -0.6548607349395752 0 -0.75574958324432373
vn -0.95949298143386841 0 -0.28173255920410156
vn -0.95949298143386841 0 -0.28173255920410156
vn -0.95949298143386841 0 0.28173255920410156
vn -0.95949298143386841 0 0.28173255920410156
vn -0.6548607349395752 0 0.75574958324432373
vn -0.6548607349395752 0 0.75574958324432373
vn -0.14231483638286591 0 0.98982143402099609
vn -0.14231483638286591 0 0.98982143402099609
vn 0.41541501879692078 0 0.90963196754455566
vn 0.41541501879692078 0 0.90963196754455566
vn 0.84125351905822754 0 0.54064083099365234
vn 0.84125351905822754 0 0.54064083099365234
vn 1 0 0
vn 1 0 0
vn 0 -1 0
vn 0 -1 0
vn 0 -1 0
vn 0 -1 0
vn 0 -1 0
vn 0 -1 0
vn 0 -1 0
vn 0 -1 0
vn 0 -1 0
vn 0 -1 0
vn 0 -1 0
vn 0 1 0
vn 0 1 0
vn 0 1 0
vn 0 1 0
vn 0 1 0
vn 0 1 0
vn 0 1 0
vn 0 1 0
vn 0 1 0
vn 0 1 0
vn 0 1 0
f 68/68/68 70/70/70 71/71/71 69/69/69
f 70/70/70 72/72/72 73/73/73 71/71/71
f 72/72/72 74/74/74 75/75/75 73/73/73
f 74/74/74 76/76/76 77/77/77 75/75/75
f 76/76/76 78/78/78 79/79/79 77/77/77
f 78/78/78 80/80/80 81/81/81 79/79/79
f 80/80/80 82/82/82 83/83/83 81/81/81
f 82/82/82 84/84/84 85/85/85 83/83/83
f 84/84/84 86/86/86 87/87/87 85/85/85
f 86/86/86 88/88/88 89/89/89 87/87/87
f 88/88/88 90/90/90 91/91/91 89/89/89
f 98/98/98 100/100/100 99/99/99
f 98/98/98 97/97/97 100/100/100
f 96/96/96 100/100/100 97/97/97
f 96/96/96 102/102/102 100/100/100
f 94/94/94 102/102/102 96/96/96
f 92/92/92 102/102/102 94/94/94
f 96/96/96 95/95/95 94/94/94
f 93/93/93 92/92/92 94/94/94
f 102/102/102 101/101/101 100/100/100
f 109/109/109 110/110/110 111/111/111
f 109/109/109 111/111/111 108/108/108
f 107/107/107 108/108/108 111/111/111
f 107/107/107 111/111/111 113/113/113
f 105/105/105 107/107/107 113/113/113
f 103/103/103 105/105/105 113/113/113
f 107/107/107 105/105/105 106/106/106
f 104/104/104 105/105/105 103/103/103
f 113/113/113 111/111/111 112/112/112
